<svg width="16" height="16" viewBox="0 0 16 16" fill="none" xmlns="http://www.w3.org/2000/svg">
<path d="M6.86494 9.39594L6.49976 8.58693L4.02153 8.7482L4.86917 9.8351L6.88284 9.71053L6.86494 9.39594ZM10.6246 5.75791L10.2248 6.29387L9.69677 7.03594L9.62916 7.13091L7.68892 9.85729L5.43854 13.0341L6.18536 14.6195C8.05585 12.0582 9.89485 9.47424 11.7364 6.8921L10.6246 5.75791ZM9.61047 5.25742L10.164 2.51029L9.2103 1.507L8.42722 4.63067L8.11161 6.01014L9.34795 6.45857L9.61047 5.25742Z" fill="#59870E"/>
<path d="M10.6362 5.74374L10.3811 5.76068L10.0188 5.78462L9.75379 5.8021L8.25365 5.90146L8.53046 4.58129L8.81002 3.24858L9.21208 1.50001L6.76712 4.91003L4.00005 8.79806L5.98261 8.66684L6.38304 8.64038L6.10576 9.96092L6.06144 10.1725L5.99358 10.4963L5.46676 13.0083L6.19933 11.9788L7.86907 9.63231L9.80922 6.90584L9.87683 6.81092L10.6363 5.74374H10.6362Z" fill="#00FF00"/>
</svg>
