<svg width="16" height="16" viewBox="0 0 16 16" fill="none" xmlns="http://www.w3.org/2000/svg">
<path d="M13.2831 9.88075C12.6453 8.5367 11.2353 7.78845 9.0649 6.97704C9.03845 6.96708 8.54221 6.80592 7.9657 6.61894C7.30145 6.40364 6.57809 6.45747 5.95367 6.76983L4.73251 7.38026L9.94382 13.9123H12.8217L13.2906 12.8037C13.6863 11.8691 13.718 10.7976 13.2831 9.88075Z" fill="#59870E"/>
<path d="M11.9515 5.36204C12.0066 4.98838 12.0647 4.59326 12.0921 4.40876C12.2552 3.30397 11.4913 2.27602 10.3866 2.11299C9.28175 1.94996 8.2538 2.71377 8.09078 3.81856C8.06371 4.00275 8.00522 4.39787 7.95015 4.77184C7.76161 4.81073 7.60791 4.96194 7.57805 5.16324C7.53418 5.45756 7.63405 5.83962 7.82539 5.96811C7.8901 6.9217 8.57115 7.82053 9.52412 7.96116C10.4771 8.10179 11.3884 7.43754 11.7259 6.54338C11.9462 6.47524 12.1522 6.13861 12.1951 5.84397C12.224 5.64236 12.1207 5.45351 11.9515 5.36204Z" fill="#59870E"/>
<path d="M14.9956 11.8713C14.9695 11.5369 14.7884 11.2335 14.5395 11.0083L13.2723 9.85931C13.2723 9.85931 13.3874 10.0905 13.4942 10.7105L11.2223 9.65646C10.6365 9.38578 9.99838 9.24547 9.3528 9.24547H8.81456C8.22965 9.24547 7.69358 8.87648 7.52527 8.31614C7.46118 8.10334 7.41264 7.84479 7.39304 7.5318C7.86875 7.13326 8.16213 6.50852 8.17862 5.86948C8.36437 5.73289 8.44806 5.3471 8.39174 5.05496C8.35316 4.8549 8.19325 4.71054 8.00346 4.67943C7.93253 4.30826 7.85786 3.91594 7.82301 3.733C7.61363 2.63598 6.55456 1.91635 5.45754 2.12542C4.36053 2.3345 3.6409 3.39387 3.84997 4.49089C3.88482 4.67383 3.9598 5.06616 4.03042 5.43733C3.86522 5.53595 3.7697 5.72916 3.80766 5.92921C3.86304 6.22167 4.083 6.54959 4.30577 6.60808C4.39599 6.81964 4.5192 7.01565 4.66698 7.19019L4.73263 7.38029L4.34404 9.75602L3.06097 10.0351C2.89358 10.0749 2.73989 10.1421 2.6033 10.2308C2.08871 10.5646 1.89643 11.1999 2.04795 11.7733C2.08653 11.9189 2.78811 13.9123 2.78811 13.9123H10.9551L11.2273 12.7845L13.548 13.188C14.3376 13.329 15.06 12.6893 14.9956 11.8713Z" fill="#00FF00"/>
<path d="M9.25924 12.0017L7.75808 11.484C7.75808 11.484 8.40272 11.4103 8.39712 11.0668C8.39681 11.0422 8.38904 10.9066 8.19178 10.9262C8.13765 10.9314 7.70239 10.975 7.39655 11.0055C7.19463 11.0257 6.99552 11.0656 6.80137 11.1247L6.69528 11.157L4.34475 9.75604C4.34475 9.75604 4.34475 9.75604 4.57778 9.24705C4.98504 8.35661 4.73334 7.38031 4.73334 7.38031L1.74936 8.87214C1.28984 9.10175 0.999557 9.57155 0.999557 10.0855C0.999557 10.7118 1.42828 11.2566 2.03684 11.4041L6.32754 12.3181L8.04991 12.9553C8.16191 12.9908 8.26987 12.9955 8.39463 12.9575C8.51971 12.9196 8.55891 12.8919 8.61958 12.8474C8.78385 12.7273 9.09031 12.4896 9.31151 12.3169C9.42538 12.2276 9.39521 12.0487 9.25924 12.0017Z" fill="#59870E"/>
</svg>
