<svg width="16" height="16" viewBox="0 0 16 16" fill="none" xmlns="http://www.w3.org/2000/svg">
<path d="M12.8325 1.29357C12.7856 1.31559 12.7032 1.36154 12.6506 1.39505C12.528 1.47259 12.4878 1.49078 12.438 1.49078C12.4026 1.49078 12.3969 1.49366 12.3969 1.51185C12.3969 1.52238 12.4084 1.54631 12.4218 1.5645L12.4467 1.59705L12.4275 1.63247C12.305 1.86989 12.2638 1.97616 12.2246 2.15614C12.1709 2.40697 12.1834 2.77364 12.259 3.15658C12.305 3.39017 12.3586 3.58834 12.483 3.98469C12.6343 4.46624 12.7511 4.88651 12.7894 5.08086C12.8152 5.21488 12.8468 5.50975 12.8468 5.61602C12.8468 5.77302 12.8095 5.96641 12.7588 6.07363C12.7042 6.19138 12.5903 6.28616 12.485 6.30244C12.438 6.3101 12.4371 6.32446 12.4802 6.33882C12.4974 6.34456 12.5127 6.35222 12.5165 6.35605C12.529 6.36849 12.4926 6.41923 12.4237 6.48433C12.3078 6.59443 12.1681 6.65091 12.0101 6.65091C11.8186 6.65091 11.6971 6.56762 11.3093 6.16554C11.0863 5.93577 10.7914 5.6591 10.7311 5.62272C10.7014 5.60548 10.7005 5.60548 10.7052 5.62272C10.7081 5.63325 10.7139 5.65718 10.7177 5.67633C10.7253 5.72324 10.7129 5.72324 10.6555 5.67537C10.5837 5.61602 10.4946 5.5624 10.4161 5.53177C10.2878 5.48294 10.2112 5.47146 9.95563 5.46475L9.72108 5.45901L9.65885 5.41976C9.56312 5.35945 9.53918 5.35466 9.37643 5.35657C9.19837 5.35945 9.12561 5.34987 8.91307 5.2953C8.64597 5.22733 8.58662 5.23116 8.16634 5.3537C7.84658 5.44656 7.74319 5.46667 7.43779 5.4973C7.24632 5.51549 7.08836 5.51549 6.96295 5.49635C6.90742 5.48773 6.86051 5.48294 6.85668 5.48582C6.85381 5.48964 6.86242 5.50688 6.87679 5.52507L6.90263 5.55857L6.88061 5.56336C6.86817 5.56623 6.82222 5.57102 6.77914 5.57389C6.67095 5.58251 6.62883 5.59878 6.56947 5.65718C6.52161 5.70409 6.51778 5.70601 6.43545 5.71845C6.378 5.72803 6.33205 5.74239 6.28897 5.76441C5.99794 5.91471 5.97209 5.92333 5.83806 5.92333C5.7921 5.92333 5.72318 5.91662 5.68488 5.90897C5.64659 5.90035 5.61404 5.89652 5.61021 5.89939C5.60734 5.90226 5.61021 5.91854 5.61691 5.93481C5.62265 5.95205 5.62648 5.96736 5.62361 5.96928C5.6217 5.97215 5.60063 5.96928 5.57861 5.96258C5.55564 5.95683 5.48001 5.94726 5.41012 5.94056C5.25407 5.9262 5.07505 5.9396 4.91134 5.97885L4.8022 6.00374L4.85103 6.02576C4.90177 6.04778 4.92379 6.07363 4.91421 6.09948C4.91134 6.10714 4.86539 6.13586 4.81369 6.16266C4.57339 6.28616 4.32065 6.53029 4.11769 6.83568C4.01239 6.9946 3.91857 7.14682 3.90995 7.17554C3.90421 7.19565 3.90516 7.1966 3.9425 7.19086C3.97696 7.18512 3.98175 7.18703 3.98175 7.20235C3.98175 7.21288 3.96739 7.24543 3.9492 7.27511C3.90516 7.34691 3.87644 7.42924 3.82762 7.6188C3.75294 7.9127 3.69646 8.04386 3.59498 8.16353C3.5586 8.20565 3.54616 8.22767 3.55381 8.23246C3.56052 8.23629 3.59211 8.24012 3.62562 8.24012C3.66104 8.24012 3.68497 8.24395 3.68497 8.25065C3.68497 8.25639 3.67348 8.27554 3.65912 8.29373C3.62849 8.3349 3.63615 8.34447 3.70508 8.35117C3.80847 8.3617 3.80368 8.35692 3.79602 8.42967C3.79219 8.4651 3.78549 8.55222 3.78166 8.62306C3.77688 8.6939 3.76635 8.78007 3.75677 8.81453C3.73571 8.89591 3.68497 8.99643 3.62657 9.07206C3.60072 9.10557 3.57966 9.1362 3.57966 9.14099C3.57966 9.14482 3.59594 9.15152 3.61604 9.15439C3.63519 9.15726 3.66295 9.16205 3.67731 9.16396C3.73858 9.17354 3.95016 9.13429 4.06791 9.09121C4.1646 9.05578 4.30629 8.9792 4.40107 8.91122C4.45277 8.87484 4.50638 8.83942 4.5217 8.83463C4.53606 8.82889 4.58871 8.8241 4.63945 8.8241C4.89507 8.8241 5.19663 8.73028 5.37278 8.5953C5.40533 8.57041 5.44171 8.54456 5.45224 8.53881C5.47618 8.52637 5.48192 8.53115 5.50777 8.58285C5.52788 8.62115 5.54415 8.61349 5.56234 8.55796C5.59106 8.46893 5.6552 8.36649 5.69733 8.34447C5.72126 8.33107 5.73371 8.3416 5.79115 8.4268C5.817 8.46318 5.86103 8.51775 5.89071 8.54647C5.92039 8.57519 5.94432 8.60678 5.94432 8.61827C5.94432 8.6288 5.92518 8.67571 5.90124 8.72358C5.86103 8.804 5.8237 8.91697 5.83423 8.9275C5.8371 8.93037 5.86008 8.91218 5.88593 8.88825C5.93379 8.84325 5.96347 8.83176 5.96347 8.8557C5.96347 8.86336 5.9539 8.90261 5.94337 8.94473C5.91848 9.03759 5.91273 9.208 5.93379 9.24438L5.9472 9.26832L5.98166 9.22906C6.02187 9.18311 6.09463 9.14482 6.22196 9.10365C6.31961 9.07206 6.39907 9.05866 6.55224 9.04908C6.6049 9.04525 6.70446 9.03664 6.77243 9.02898C7.05198 8.99643 7.04528 8.99547 7.12474 9.08259C7.18792 9.15152 7.24154 9.19268 7.28749 9.20705C7.30664 9.21279 7.32291 9.22141 7.32291 9.22523C7.32291 9.23672 7.30185 9.25874 7.25111 9.29895C7.22526 9.31906 7.10655 9.42628 6.98784 9.53637C6.58192 9.91357 6.54554 9.93368 6.16069 10.0016C6.09846 10.0131 6.02187 10.0294 5.99123 10.039C5.80838 10.0964 5.65808 10.2429 5.46086 10.5569C5.36225 10.7149 5.30577 10.7876 5.18131 10.9236C5.01282 11.1055 4.86347 11.2424 4.43649 11.6043C3.96069 12.0083 3.71848 12.3098 3.57966 12.6698C3.51839 12.8278 3.4801 12.8641 3.37287 12.8641C3.33649 12.8641 3.28288 12.8574 3.25416 12.8498C3.18332 12.8306 3.02057 12.8306 2.966 12.8498C2.94015 12.8593 2.9076 12.8814 2.88271 12.9091C2.84346 12.9522 2.84154 12.9532 2.79751 12.9465C2.77357 12.9436 2.73336 12.9292 2.70943 12.9149C2.43754 12.7579 2.35329 12.7282 2.16757 12.7272C2.04694 12.7263 2.00003 12.7531 2.00003 12.823C2.00003 12.8651 2.02971 12.9043 2.11683 12.9723C2.19533 13.0355 2.2432 13.0901 2.44903 13.3591C2.50456 13.4318 2.52562 13.451 2.57157 13.474C2.62422 13.4989 2.6338 13.5008 2.74677 13.4998C2.81282 13.4998 2.89037 13.4941 2.91909 13.4864C2.94781 13.4797 3.04546 13.4558 3.13449 13.4328C3.40351 13.3639 3.42936 13.36 3.6237 13.3524C3.79698 13.3466 3.81038 13.3447 3.86017 13.3198C3.93293 13.2844 3.99132 13.2174 4.08132 13.0642C4.30151 12.6889 4.35608 12.6037 4.45851 12.4649C4.66817 12.1844 4.90751 11.9087 5.18227 11.633C5.45416 11.3611 5.53458 11.3056 5.79593 11.2127C5.95294 11.1562 6.07835 11.0949 6.18845 11.0222C6.28514 10.9571 6.43449 10.8125 6.47087 10.7484C6.48427 10.7254 6.52448 10.6756 6.5599 10.6373C6.65564 10.5359 6.72935 10.5014 6.97826 10.443C7.13623 10.4047 7.1975 10.3836 7.35163 10.3157C7.53449 10.2343 7.56225 10.2257 7.79201 10.1788C7.90498 10.1558 8.02082 10.1318 8.04763 10.1251C8.07539 10.1184 8.10124 10.1156 8.10411 10.1194C8.10794 10.1223 8.11847 10.1673 8.129 10.219C8.14241 10.2889 8.14911 10.3712 8.15294 10.5359C8.15868 10.7895 8.15006 10.9044 8.10794 11.115C8.06007 11.3515 8.00742 11.4913 7.89541 11.6818C7.83892 11.7756 7.82456 11.8417 7.83988 11.9269C7.8619 12.0475 7.89828 12.0963 8.00646 12.149C8.09741 12.194 8.16825 12.1988 8.34824 12.1758C8.46791 12.1605 8.58183 12.1547 8.8317 12.1509C9.47025 12.1394 9.79958 12.1844 10.554 12.3816C10.8192 12.4515 10.8488 12.464 10.9139 12.5358C10.9829 12.6114 11.0221 12.6985 11.0815 12.9072C11.0997 12.9704 11.1217 13.0317 11.1293 13.0441C11.1696 13.1044 11.2777 13.1513 11.3792 13.1513C11.4836 13.1513 11.4979 13.0968 11.4309 12.9541C11.385 12.8565 11.3802 12.8115 11.4146 12.7962C11.4443 12.7818 11.4845 12.8009 11.5123 12.8421C11.5238 12.8593 11.5554 12.9254 11.5841 12.9886C11.6387 13.115 11.6856 13.1772 11.7497 13.2117C11.7832 13.2289 11.8033 13.2318 11.8799 13.2308C11.9498 13.2289 11.9852 13.2337 12.0321 13.249C12.1173 13.2768 12.3509 13.2796 12.4179 13.2538C12.5271 13.2117 12.552 13.115 12.4754 13.0326C12.4534 13.0096 12.3682 12.9637 12.215 12.8957C12.147 12.8651 12.0245 12.777 11.9756 12.7244C11.9077 12.6497 11.8694 12.5903 11.7612 12.396C11.6348 12.1701 11.5965 12.1117 11.5104 12.0217C11.4548 11.9633 11.4204 11.9365 11.3687 11.9116C11.2605 11.858 11.2873 11.8608 10.5396 11.8302C10.3261 11.8216 9.94989 11.7957 9.91159 11.7871C9.90106 11.7852 9.82926 11.7756 9.75363 11.768C9.58226 11.7488 9.18401 11.677 9.07199 11.6435C8.93318 11.6033 8.7666 11.5104 8.71682 11.4444C8.68618 11.4042 8.66608 11.3467 8.65267 11.2654C8.63161 11.1275 8.69863 10.9628 8.90254 10.6526C9.02221 10.4708 9.08731 10.3492 9.12273 10.2429C9.15241 10.152 9.18018 9.97293 9.18018 9.86762C9.18018 9.79486 9.18401 9.76997 9.19549 9.75848C9.21464 9.73933 9.21943 9.74125 9.37931 9.85613C9.44919 9.90591 9.54014 9.96527 9.58035 9.98729C9.65981 10.0323 9.70672 10.0658 9.70672 10.0782C9.70672 10.0821 9.69332 10.0945 9.67608 10.105L9.64545 10.1251L9.67321 10.1357C9.77661 10.1749 9.9652 10.1855 10.3501 10.173C10.5281 10.1673 10.6803 10.1644 10.688 10.1682C10.6957 10.1711 10.7024 10.1826 10.7024 10.1941C10.7024 10.2132 10.7052 10.2142 10.7541 10.2084C10.8594 10.196 11.0087 10.1309 11.1619 10.0294C11.2471 9.97388 11.2567 9.9691 11.3246 9.96335C11.4788 9.94995 11.5439 9.88868 11.8253 9.48946C11.9096 9.37075 11.9622 9.31235 11.9871 9.31235C11.989 9.31235 11.989 9.3382 11.9871 9.36979C11.9852 9.40139 11.9871 9.42724 11.9919 9.42724C12.0139 9.42724 12.1259 9.28842 12.1949 9.17545C12.3069 8.99164 12.3528 8.87197 12.4543 8.49382C12.5558 8.11662 12.5606 8.1013 12.5836 8.1013C12.5979 8.1013 12.6046 8.11088 12.6113 8.1396C12.6238 8.19034 12.6228 8.18938 12.6515 8.16257C12.6898 8.12811 12.7501 8.03525 12.799 7.93855C12.8229 7.89069 12.8468 7.85239 12.8516 7.85239C12.8574 7.85239 12.8622 7.86867 12.8641 7.88781C12.866 7.90792 12.8708 7.92419 12.8756 7.92419C12.8937 7.92419 12.9646 7.8275 13.0086 7.7423C13.0364 7.68868 13.0919 7.54508 13.1427 7.39478C13.1905 7.25405 13.2518 7.09034 13.2786 7.03098C13.405 6.75527 13.4691 6.52742 13.5141 6.20096C13.538 6.01906 13.538 5.4772 13.5141 5.26754C13.4921 5.08086 13.4634 4.9047 13.4394 4.80322C13.3954 4.6175 13.2939 4.31019 13.2164 4.12733C13.0919 3.83438 13.0077 3.58739 12.9675 3.39591C12.9215 3.17764 12.9215 2.84831 12.9684 2.65875C12.9981 2.53621 13.0469 2.46345 13.1273 2.42324C13.1886 2.39165 13.2403 2.34378 13.3064 2.25667C13.4212 2.1054 13.4825 2.06615 13.7879 1.94936C14.0273 1.85745 14.1201 1.80288 14.1201 1.75406C14.1201 1.7148 14.0799 1.69949 13.9535 1.68896C13.8463 1.68034 13.585 1.62194 13.5333 1.59418C13.5237 1.58939 13.5074 1.56641 13.4978 1.54248C13.4758 1.49174 13.4031 1.41132 13.3456 1.37399C13.292 1.34048 13.2767 1.33952 13.3073 1.37303C13.3303 1.39792 13.3293 1.39792 13.2949 1.37016C13.2748 1.35484 13.2547 1.33091 13.2499 1.31655C13.2413 1.29165 13.2365 1.28974 13.1924 1.28974C13.1446 1.28974 13.0957 1.27442 13.0957 1.2591C13.0957 1.25527 13.0555 1.25145 13.0077 1.2524C12.9234 1.2524 12.9139 1.25527 12.8325 1.29357ZM13.359 1.4142C13.3686 1.42473 13.3743 1.43334 13.3715 1.43334C13.3686 1.43334 13.359 1.42473 13.3494 1.4142C13.3399 1.40366 13.3341 1.39505 13.337 1.39505C13.3399 1.39505 13.3494 1.40366 13.359 1.4142Z" fill="#00FF00"/>
</svg>
