<svg width="16" height="16" viewBox="0 0 16 16" fill="none" xmlns="http://www.w3.org/2000/svg">
<path d="M7.23967 1.68333C7.4364 1.91731 7.55616 2.10351 7.6971 2.40132C7.85396 2.73636 7.92042 2.99166 7.9391 3.32144C7.96832 3.93034 7.75829 4.34526 7.22914 4.71755C6.60419 5.15892 6.32771 5.69083 6.32507 6.4487C6.32507 6.79177 6.37561 7.10813 6.47667 7.42198C6.54313 7.61872 6.55116 7.63201 6.55642 7.54963C6.58037 7.24117 6.6309 6.92205 6.68933 6.72531C6.84883 6.16958 7.09083 5.90626 7.85409 5.46225C8.41245 5.13523 8.61195 4.82138 8.61195 4.27091C8.60932 3.61148 8.1386 2.56634 7.56155 1.94415C7.45259 1.82716 7.30099 1.6782 7.22388 1.61437L7.08557 1.50001L7.23967 1.68333Z" fill="#00FF00"/>
<path d="M9.44988 3.38525C9.80887 3.8719 9.85677 4.49948 9.5695 4.95415C9.37539 5.25998 9.07759 5.48869 8.48725 5.79439C7.7082 6.19326 7.3625 6.69319 7.3625 7.41645C7.3625 7.78071 7.38118 7.86848 7.45817 7.86848C7.5087 7.86848 7.52199 7.84716 7.54857 7.72228C7.59384 7.50159 7.72675 7.26222 7.89428 7.09469C8.08838 6.90322 8.35434 6.77294 8.99784 6.55225C9.66004 6.32617 9.95244 6.1826 10.1121 6.00442C10.3886 5.69859 10.4763 5.29972 10.378 4.81584C10.277 4.32393 10.0935 4.00218 9.6707 3.57396C9.4658 3.3692 9.38868 3.30274 9.44988 3.38525Z" fill="#00FF00"/>
<path d="M5.19533 7.31274C4.41891 7.42447 3.85778 7.62923 3.60788 7.88716C3.44036 8.05995 3.43233 8.10785 3.45628 8.6795C3.50142 9.77504 3.69565 10.9557 4.06518 12.4024C4.26731 13.1921 4.47207 13.8676 4.52787 13.9288C4.60235 14.0111 4.88686 14.1361 5.15545 14.2052C6.03557 14.434 8.01399 14.4632 9.0511 14.261C9.52182 14.1706 9.84621 14.0456 10.0137 13.894C10.1041 13.8143 10.1255 13.7718 10.1547 13.6334C10.2398 13.1921 10.2292 13.2133 10.3275 13.2133C10.4684 13.2133 10.9045 13.091 11.1199 12.9926C11.4098 12.8569 11.5985 12.7266 11.8671 12.4687C12.4867 11.8731 12.867 10.9556 12.8696 10.0463C12.8696 9.52238 12.774 9.23787 12.508 8.96928C12.2181 8.67674 11.8937 8.56238 11.2742 8.54106L10.8673 8.52514L10.8859 8.238L10.9046 7.95085L10.8302 7.88177C10.6147 7.67963 9.83568 7.435 9.07505 7.32603L8.96596 7.31011L8.85963 7.49092L8.75066 7.66911L8.90226 7.69042C9.67605 7.80215 10.0457 7.90045 10.1893 8.0281C10.2638 8.09456 10.269 8.11048 10.2478 8.17707C10.1415 8.47487 8.93161 8.66634 7.1819 8.66634C5.57577 8.66634 4.42167 8.50408 4.16111 8.24352C4.09202 8.1718 4.08663 8.15575 4.11321 8.09732C4.17703 7.95638 4.56261 7.8261 5.19546 7.73306C5.3843 7.70648 5.59169 7.68253 5.65552 7.68253C5.71671 7.68253 5.76724 7.67726 5.76724 7.67187C5.76724 7.66121 5.5359 7.28366 5.52261 7.27037C5.51708 7.26761 5.37087 7.28616 5.19533 7.31274ZM11.5081 9.43737C11.7103 9.47198 11.8671 9.54633 11.9256 9.6395C12 9.75122 12.0053 10.166 11.9362 10.4984C11.79 11.2164 11.4044 11.8094 10.8991 12.1046C10.7157 12.2109 10.4604 12.3039 10.4312 12.2747C10.4205 12.2641 10.4551 11.9902 10.5083 11.6658C10.612 11.0303 10.7183 10.2538 10.7742 9.75662L10.8061 9.45079L10.8991 9.43487C11.0508 9.40815 11.3273 9.40815 11.5081 9.43737Z" fill="#00FF00"/>
</svg>
